# xmcd
#
# Track frame offsets: 
#        150
#        22062
#        41932
#        63720
#        83375
#        104567
#        120852
#        135177
#
# Disc length: 2191 seconds
#
# Revision: 2
# Processed by: cddbd v1.5.2PL0 Copyright (c) Steve Scherf et al.
# Submitted via: ExactAudioCopy v0.99pb4
#
DISCID=62088d08
DTITLE=Loredana Bertè - Made in Italy
DYEAR=1981
DGENRE=New Age
TTITLE0=Movie
TTITLE1=Ninna Nanna
TTITLE2=Lontano da Dove
TTITLE3=Amica Notte
TTITLE4=La Goccia
TTITLE5=La Tigre
TTITLE6=Canterò
TTITLE7=Number One
EXTD=YEAR: 1981
EXTT0=
EXTT1=
EXTT2=
EXTT3=
EXTT4=
EXTT5=
EXTT6=
EXTT7=
PLAYORDER=
